<?xml version="1.0" standalone="no"?>
<!DOCTYPE svg PUBLIC "-//W3C//DTD SVG 20010904//EN"
 "http://www.w3.org/TR/2001/REC-SVG-20010904/DTD/svg10.dtd">
<svg version="1.0" xmlns="http://www.w3.org/2000/svg"
 width="256.000000pt" height="256.000000pt" viewBox="0 0 256.000000 256.000000"
 preserveAspectRatio="xMidYMid meet">
<metadata>
Created by potrace 1.14, written by Peter Selinger 2001-2017
</metadata>
<g transform="translate(0.000000,256.000000) scale(0.100000,-0.100000)"
fill="#000000" stroke="none">
<path d="M1160 2469 c-176 -17 -283 -47 -440 -122 -14 -7 -27 -14 -30 -17 -3
-3 -17 -11 -32 -19 -15 -8 -37 -23 -48 -33 -11 -10 -20 -15 -20 -11 -1 4 -10
-3 -20 -16 -11 -13 -20 -20 -20 -17 0 7 -16 -6 -72 -59 -21 -19 -43 -35 -49
-35 -7 0 -10 -3 -6 -6 3 -3 -13 -24 -35 -45 -23 -21 -39 -39 -35 -39 3 0 -10
-17 -28 -37 -19 -21 -35 -42 -35 -46 0 -5 -7 -15 -15 -24 -8 -8 -12 -19 -9
-25 4 -6 3 -8 -3 -5 -9 5 -110 -189 -117 -226 -2 -7 -6 -19 -9 -27 -6 -14 -34
-123 -43 -165 -3 -11 -6 -61 -8 -111 -2 -51 -7 -97 -10 -103 -4 -6 -3 -11 1
-11 5 0 10 -30 11 -67 3 -71 10 -124 17 -132 3 -2 -1 -11 -8 -19 -9 -13 -9
-14 0 -8 9 5 13 -1 13 -21 0 -16 4 -33 9 -39 6 -5 12 -22 15 -39 2 -16 5 -31
6 -32 2 -2 4 -7 5 -13 1 -5 4 -12 5 -15 3 -6 5 -12 15 -43 4 -12 12 -22 18
-22 6 0 8 -3 4 -6 -3 -4 12 -41 35 -83 23 -42 46 -86 52 -98 6 -13 15 -23 19
-23 5 0 5 -4 2 -10 -3 -5 -2 -10 4 -10 5 0 23 -18 39 -41 62 -84 161 -176 268
-251 60 -42 254 -138 329 -163 151 -50 467 -65 566 -27 15 6 29 9 31 6 11 -10
228 77 327 131 76 42 82 46 128 82 22 18 46 33 51 33 6 0 13 9 17 20 3 11 9
19 13 17 7 -2 102 90 102 99 0 3 10 15 23 27 12 12 38 45 56 72 19 28 37 52
40 55 4 3 7 12 9 20 2 8 12 24 23 36 10 11 16 24 12 28 -5 4 1 14 11 22 11 8
17 14 13 14 -3 0 7 31 23 69 15 38 26 72 22 75 -3 3 -1 6 5 6 10 0 28 68 26
98 0 6 2 12 6 12 4 0 8 6 9 13 4 46 13 104 18 119 7 22 6 210 -1 258 -3 19 -7
58 -10 85 -7 68 -12 90 -25 115 -6 12 -9 28 -6 36 3 8 1 14 -4 14 -6 0 -10 5
-10 11 0 16 -102 223 -114 231 -6 4 -8 8 -4 8 4 0 -4 12 -18 27 -13 14 -22 28
-20 30 2 2 -6 14 -18 27 -11 12 -30 35 -41 51 -18 26 -143 153 -177 181 -104
83 -323 186 -441 208 -151 27 -305 37 -417 25z"/>
</g>
</svg>
