<?xml version="1.0" standalone="no"?>
<!DOCTYPE svg PUBLIC "-//W3C//DTD SVG 20010904//EN"
 "http://www.w3.org/TR/2001/REC-SVG-20010904/DTD/svg10.dtd">
<svg version="1.0" xmlns="http://www.w3.org/2000/svg"
 width="700.000000pt" height="700.000000pt" viewBox="0 0 700.000000 700.000000"
 preserveAspectRatio="xMidYMid meet">
<metadata>
Created by potrace 1.11, written by Peter Selinger 2001-2013
</metadata>
<g transform="translate(0.000000,700.000000) scale(0.100000,-0.100000)"
fill="#000000" stroke="none">
<path d="M3365 6992 c-1 -2 -40 -5 -86 -7 -46 -3 -104 -7 -129 -9 -25 -3 -72
-8 -105 -12 -33 -3 -63 -8 -66 -9 -3 -2 -28 -7 -55 -10 -70 -10 -229 -42 -294
-61 -232 -66 -408 -127 -549 -192 -31 -14 -58 -26 -61 -27 -3 0 -57 -28 -120
-60 -63 -33 -121 -61 -127 -63 -7 -2 -13 -8 -13 -13 0 -5 -5 -9 -11 -9 -9 0
-203 -121 -244 -152 -5 -4 -59 -44 -119 -89 -61 -45 -115 -86 -122 -93 -6 -6
-44 -40 -84 -76 -140 -124 -307 -299 -401 -420 -63 -81 -63 -80 -82 -101 -9
-10 -14 -19 -10 -19 5 0 1 -6 -7 -13 -8 -7 -19 -20 -25 -28 -26 -41 -68 -103
-77 -113 -32 -37 -218 -371 -218 -391 0 -7 -3 -15 -7 -17 -7 -3 -57 -102 -59
-117 -1 -9 -24 -63 -40 -95 -8 -16 -14 -32 -14 -36 0 -4 -7 -24 -15 -44 -8
-20 -16 -39 -16 -43 -1 -5 -7 -24 -15 -43 -12 -29 -42 -126 -59 -190 -2 -8
-12 -42 -21 -75 -17 -62 -21 -80 -29 -130 -3 -16 -8 -37 -11 -46 -2 -10 -7
-30 -9 -45 -51 -357 -57 -429 -57 -654 1 -169 10 -324 28 -440 2 -19 9 -64 14
-100 12 -79 18 -117 26 -150 3 -14 6 -26 5 -27 0 -2 5 -17 10 -35 5 -18 12
-49 15 -68 3 -19 8 -38 11 -42 5 -9 7 -18 24 -93 6 -27 15 -54 20 -60 5 -5 9
-16 9 -24 0 -21 74 -224 117 -319 12 -29 23 -55 23 -58 0 -7 114 -238 120
-244 3 -3 27 -43 54 -90 43 -75 171 -273 197 -304 5 -6 28 -36 52 -66 23 -30
45 -57 49 -58 5 -2 8 -10 8 -18 0 -8 4 -14 8 -14 4 0 29 -26 56 -58 110 -132
349 -364 450 -437 15 -11 42 -32 59 -48 45 -39 323 -227 336 -227 6 0 11 -5
11 -12 0 -6 3 -9 6 -6 3 4 20 -3 38 -15 17 -12 63 -38 101 -57 39 -19 72 -38
73 -42 2 -5 8 -8 13 -8 5 0 48 -19 96 -41 87 -41 274 -117 303 -124 8 -2 16
-4 18 -5 1 -2 5 -3 10 -5 4 -1 14 -4 22 -8 52 -20 283 -84 335 -93 11 -1 54
-10 95 -19 41 -9 93 -19 115 -21 22 -3 51 -8 65 -11 14 -3 41 -6 60 -8 19 -2
69 -7 110 -11 41 -5 110 -8 152 -9 43 0 78 -2 78 -5 0 -9 374 3 440 14 14 3
55 7 93 11 37 3 73 8 80 10 6 2 30 7 52 10 36 5 72 11 115 19 8 2 26 6 40 9
14 4 36 9 50 12 95 19 256 62 282 76 10 5 18 7 18 3 0 -3 7 -1 15 6 8 7 15 9
15 5 0 -4 6 -3 13 3 6 5 39 17 72 27 33 9 66 22 73 27 6 6 12 7 12 2 0 -5 4
-4 8 1 8 11 69 36 90 38 6 0 12 4 12 8 0 3 8 9 18 11 9 3 20 6 24 7 61 16 527
279 568 321 3 3 22 16 42 30 21 14 38 28 38 33 0 4 5 7 11 7 10 0 90 59 114
84 6 6 35 31 65 56 123 99 353 331 432 435 4 6 20 26 35 45 64 80 123 159 123
165 0 3 9 15 19 26 58 63 261 426 335 599 15 36 34 79 41 95 20 47 86 237 91
264 3 14 7 28 10 33 3 4 7 16 9 25 3 10 14 54 26 98 12 44 22 91 23 105 0 14
4 27 8 30 3 3 9 27 12 53 3 27 8 52 10 55 2 4 7 25 10 47 21 147 22 151 31
245 13 131 14 161 14 330 0 200 -8 346 -24 450 -3 14 -7 45 -10 69 -3 23 -7
56 -10 72 -3 16 -7 43 -10 59 -3 17 -12 58 -19 90 -8 33 -11 60 -8 60 3 0 1 5
-6 12 -7 7 -12 21 -12 32 0 11 -4 33 -10 50 -5 17 -24 81 -41 141 -18 61 -36
114 -41 119 -4 6 -8 19 -8 31 0 12 -4 25 -8 31 -11 12 -47 107 -44 117 1 4 -3
7 -8 7 -5 0 -9 3 -8 8 1 4 -9 30 -21 57 -13 28 -23 56 -22 63 1 6 -3 12 -9 12
-5 0 -10 6 -10 13 0 6 -7 26 -16 42 -9 17 -30 57 -46 90 -17 33 -35 63 -42 67
-6 4 -8 8 -4 8 5 0 -21 48 -57 106 -36 59 -65 110 -65 115 0 5 -4 9 -8 9 -5 0
-17 16 -28 35 -10 19 -21 35 -24 35 -3 0 -14 16 -24 35 -11 19 -23 35 -28 35
-4 0 -8 6 -8 14 0 8 -3 16 -8 18 -4 2 -32 35 -62 73 -30 39 -68 85 -85 104
-200 227 -353 371 -559 524 -50 37 -99 74 -109 82 -9 8 -20 15 -22 15 -3 0
-42 25 -88 55 -45 30 -87 55 -94 55 -7 0 -13 4 -13 8 0 5 -22 19 -50 32 -27
13 -50 27 -50 32 0 4 -8 8 -19 8 -10 0 -24 7 -31 15 -7 8 -16 12 -21 9 -5 -3
-9 0 -9 5 0 6 -4 11 -9 11 -5 0 -51 20 -102 43 -170 79 -189 87 -202 87 -7 0
-18 5 -25 12 -7 7 -12 8 -12 4 0 -5 -6 -4 -12 1 -12 10 -174 66 -180 63 -2 0
-19 6 -38 14 -19 8 -38 15 -42 15 -4 1 -13 3 -20 6 -11 3 -93 23 -172 42 -22
5 -57 12 -91 18 -11 2 -20 4 -20 5 0 1 -9 3 -20 5 -11 1 -36 5 -55 8 -159 25
-234 34 -375 43 -98 7 -345 11 -350 6z"/>
</g>
</svg>
